<?xml version="1.0" encoding="utf-8"?>
<svg version="1.1" id="Capa_1" x="0px" y="0px" viewBox="0 0 261.803 261.803" style="enable-background:new 0 0 261.803 261.803;" xmlns="http://www.w3.org/2000/svg">
  <g>
    <rect x="11.112" y="28.925" width="155.252" height="106.879" style="fill: rgb(255, 210, 62);"/>
    <rect x="94.131" y="91.19" width="157.213" height="102.956" style="fill: rgb(255, 210, 62);"/>
    <path stroke-width="0" d="M 213.138 184.702 C 216.842 184.267 219.566 185.029 221.309 186.99 C 221.963 186.119 223.488 186.01 225.885 186.663 C 227.628 187.099 228.935 187.971 229.807 189.278 C 231.332 190.586 231.877 192.874 231.441 196.142 C 229.262 197.885 228.5 201.154 229.153 205.947 C 234.165 208.126 236.78 212.702 236.998 219.675 C 236.562 221.418 235.799 222.725 234.71 223.597 C 233.184 225.122 230.788 225.667 227.519 225.231 C 225.34 224.578 223.706 223.597 222.616 222.29 C 221.527 219.893 220.002 218.041 218.041 216.733 C 213.465 217.387 210.523 216.515 209.216 214.118 C 206.819 211.94 205.621 209.434 205.621 206.601 C 198.648 205.729 193.418 203.006 189.932 198.43 C 188.625 196.905 188.189 194.617 188.625 191.566 C 189.278 189.605 190.259 188.08 191.566 186.99 C 193.091 185.683 195.488 185.247 198.757 185.683 C 200.936 187.426 204.204 188.189 208.562 187.971 C 208.78 187.099 209.325 186.446 210.196 186.01 C 210.85 185.356 211.831 184.92 213.138 184.702 Z" style="stroke-width: 2px; fill: rgb(255, 210, 62); stroke: rgba(129, 151, 57, 0);"/>
  </g>
  <path stroke-width="0" d="M 36.968 128.485 C 40.891 127.831 43.505 128.703 44.813 131.1 C 45.248 132.843 46.12 134.259 47.427 135.349 C 51.35 132.516 56.143 130.446 61.809 129.139 L 66.384 129.139 C 67.91 129.575 69.108 130.446 69.98 131.753 C 71.723 133.061 72.268 135.567 71.614 139.271 C 70.524 141.886 68.89 143.956 66.711 145.481 C 63.443 146.353 60.937 147.878 59.194 150.057 C 59.194 151.364 58.649 152.018 57.56 152.018 C 53.637 154.851 49.28 157.138 44.486 158.882 L 42.852 160.516 C 42.416 161.605 41.762 162.477 40.891 163.131 C 39.365 164.656 36.968 165.201 33.7 164.765 C 31.957 164.329 30.649 163.566 29.778 162.477 C 28.035 160.952 27.49 158.337 28.144 154.633 C 28.579 152.236 29.451 150.384 30.758 149.076 C 30.323 145.372 30.758 142.648 32.066 140.905 C 31.194 139.162 30.976 136.874 31.412 134.041 C 31.848 132.298 32.719 130.991 34.027 130.119 C 34.68 129.248 35.661 128.703 36.968 128.485 Z" style="stroke-width: 2px; fill: rgb(255, 210, 62); stroke: rgba(255, 255, 255, 0);"/>
  <path d="M249.303,78.176h-69.768V31.207c0-6.893-5.607-12.5-12.5-12.5H12.5c-6.893,0-12.5,5.607-12.5,12.5 v102.178c0,6.893,5.607,12.5,12.5,12.5h9.585l-9.045,25.029c-1.594,4.411-0.458,7.433,0.776,9.19 c1.546,2.203,4.102,3.519,6.838,3.519c2.022,0,4.073-0.699,6.096-2.078l50.082-34.146c1.038-0.707,3.652-1.514,4.907-1.514h0.527 v46.97c0,6.893,5.607,12.5,12.5,12.5h85.294c1.231,0,3.891,0.82,4.907,1.513l50.082,34.147c2.291,1.563,4.351,2.081,6.073,2.081 c2.613-0.001,4.455-1.191,5.166-1.742c1.179-0.915,4.843-4.408,2.472-10.971l-9.045-25.028h9.586c6.893,0,12.5-5.607,12.5-12.5 V90.676C261.803,83.783,256.195,78.176,249.303,78.176z M68.384,135.005L33.33,158.906l4.795-13.27 c1.288-3.562,0.856-7.274-1.184-10.179c-2.039-2.906-5.382-4.572-9.17-4.572H15V33.707h149.535v97.178H89.903 c-0.046-0.001-0.09-0.007-0.136-0.007s-0.09,0.006-0.136,0.007h-7.891C77.504,130.885,71.887,132.617,68.384,135.005z M246.803,190.354h-12.771c-3.788,0-7.131,1.667-9.171,4.572c-2.04,2.906-2.471,6.616-1.184,10.179l4.795,13.27l-35.056-23.901 c-3.501-2.387-9.118-4.119-13.356-4.119H97.268v-44.47h69.767c6.893,0,12.5-5.607,12.5-12.5V93.176h67.268V190.354z" style="fill: rgb(0, 28, 85);"/>
  <g/>
  <g/>
  <g/>
  <g/>
  <g/>
  <g/>
  <g/>
  <g/>
  <g/>
  <g/>
  <g/>
  <g/>
  <g/>
  <g/>
  <g/>
</svg>