<?xml version="1.0" encoding="utf-8"?>
<svg version="1.1" id="Capa_1" x="0px" y="0px" viewBox="0 0 261.803 261.803" style="enable-background:new 0 0 261.803 261.803;" xmlns="http://www.w3.org/2000/svg">
  <g>
    <rect x="11.112" y="28.925" width="155.252" height="106.879" style="fill: rgb(255, 210, 62);"/>
    <rect x="94.131" y="91.19" width="157.213" height="102.956" style="fill: rgb(255, 210, 62);"/>
    <path stroke-width="0" d="M 213.138 184.702 C 216.842 184.267 219.566 185.029 221.309 186.99 C 221.963 186.119 223.488 186.01 225.885 186.663 C 227.628 187.099 228.935 187.971 229.807 189.278 C 231.332 190.586 231.877 192.874 231.441 196.142 C 229.262 197.885 228.5 201.154 229.153 205.947 C 234.165 208.126 236.78 212.702 236.998 219.675 C 236.562 221.418 235.799 222.725 234.71 223.597 C 233.184 225.122 230.788 225.667 227.519 225.231 C 225.34 224.578 223.706 223.597 222.616 222.29 C 221.527 219.893 220.002 218.041 218.041 216.733 C 213.465 217.387 210.523 216.515 209.216 214.118 C 206.819 211.94 205.621 209.434 205.621 206.601 C 198.648 205.729 193.418 203.006 189.932 198.43 C 188.625 196.905 188.189 194.617 188.625 191.566 C 189.278 189.605 190.259 188.08 191.566 186.99 C 193.091 185.683 195.488 185.247 198.757 185.683 C 200.936 187.426 204.204 188.189 208.562 187.971 C 208.78 187.099 209.325 186.446 210.196 186.01 C 210.85 185.356 211.831 184.92 213.138 184.702 Z" style="stroke-width: 2px; fill: rgb(255, 210, 62); stroke: rgba(129, 151, 57, 0);"/>
  </g>
  <path stroke-width="0" d="M 36.968 128.485 C 40.891 127.831 43.505 128.703 44.813 131.1 C 45.248 132.843 46.12 134.259 47.427 135.349 C 51.35 132.516 56.143 130.446 61.809 129.139 L 66.384 129.139 C 67.91 129.575 69.108 130.446 69.98 131.753 C 71.723 133.061 72.268 135.567 71.614 139.271 C 70.524 141.886 68.89 143.956 66.711 145.481 C 63.443 146.353 60.937 147.878 59.194 150.057 C 59.194 151.364 58.649 152.018 57.56 152.018 C 53.637 154.851 49.28 157.138 44.486 158.882 L 42.852 160.516 C 42.416 161.605 41.762 162.477 40.891 163.131 C 39.365 164.656 36.968 165.201 33.7 164.765 C 31.957 164.329 30.649 163.566 29.778 162.477 C 28.035 160.952 27.49 158.337 28.144 154.633 C 28.579 152.236 29.451 150.384 30.758 149.076 C 30.323 145.372 30.758 142.648 32.066 140.905 C 31.194 139.162 30.976 136.874 31.412 134.041 C 31.848 132.298 32.719 130.991 34.027 130.119 C 34.68 129.248 35.661 128.703 36.968 128.485 Z" style="stroke-width: 2px; fill: rgb(255, 210, 62); stroke: rgba(255, 255, 255, 0);"/>
  <path d="M 249.57 78.176 L 179.802 78.176 L 179.802 31.207 C 179.802 24.314 174.195 18.707 167.302 18.707 L 12.767 18.707 C 5.874 18.707 0.267 24.314 0.267 31.207 L 0.267 133.385 C 0.267 140.278 5.874 145.885 12.767 145.885 L 22.352 145.885 L 13.307 170.914 C 11.713 175.325 12.849 178.347 14.083 180.104 C 15.629 182.307 18.185 183.623 20.921 183.623 C 22.943 183.623 24.994 182.924 27.017 181.545 L 77.099 147.399 C 78.137 146.692 80.751 145.885 82.006 145.885 L 82.533 145.885 L 82.533 192.855 C 82.533 199.748 88.14 205.355 95.033 205.355 L 180.327 205.355 C 181.558 205.355 184.218 206.175 185.234 206.868 L 235.316 241.015 C 237.607 242.578 239.667 243.096 241.389 243.096 C 244.002 243.095 245.844 241.905 246.555 241.354 C 247.734 240.439 251.398 236.946 249.027 230.383 L 239.982 205.355 L 249.568 205.355 C 256.461 205.355 262.068 199.748 262.068 192.855 L 262.068 90.676 C 262.07 83.783 256.462 78.176 249.57 78.176 Z M 68.651 135.005 L 33.597 158.906 L 38.392 145.636 C 39.68 142.074 39.248 138.362 37.208 135.457 C 35.169 132.551 31.826 130.885 28.038 130.885 L 15.267 130.885 L 15.267 33.707 L 164.802 33.707 L 164.802 130.885 L 90.17 130.885 C 90.124 130.884 90.08 130.878 90.034 130.878 C 89.988 130.878 89.944 130.884 89.898 130.885 L 82.007 130.885 C 77.771 130.885 72.154 132.617 68.651 135.005 Z M 247.07 190.354 L 234.299 190.354 C 230.511 190.354 227.168 192.021 225.128 194.926 C 223.088 197.832 222.657 201.542 223.944 205.105 L 228.739 218.375 L 193.683 194.474 C 190.182 192.087 184.565 190.355 180.327 190.355 L 97.535 190.355 L 97.535 145.885 L 167.302 145.885 C 174.195 145.885 179.802 140.278 179.802 133.385 L 179.802 93.176 L 247.07 93.176 L 247.07 190.354 Z" style="fill: rgb(0, 28, 85); stroke-width: 0px;"/>
  <g/>
  <g/>
  <g/>
  <g/>
  <g/>
  <g/>
  <g/>
  <g/>
  <g/>
  <g/>
  <g/>
  <g/>
  <g/>
  <g/>
  <g/>
</svg>