<?xml version="1.0" encoding="utf-8"?>
<svg version="1.1" width="32" height="32" viewBox="0 0 32 32" xmlns="http://www.w3.org/2000/svg">
  <title>cross</title>
  <path d="M 28.119 23.29 C 28.119 23.29 28.119 23.29 28.119 23.29 L 20.298 15.467 L 28.119 7.647 C 28.119 7.647 28.119 7.647 28.119 7.647 C 28.205 7.561 28.265 7.463 28.304 7.359 C 28.409 7.073 28.35 6.738 28.119 6.506 L 24.425 2.812 C 24.193 2.581 23.858 2.523 23.572 2.627 C 23.468 2.666 23.37 2.726 23.284 2.811 C 23.284 2.811 23.284 2.811 23.284 2.811 L 15.464 10.633 L 7.641 2.811 C 7.641 2.811 7.641 2.811 7.641 2.811 C 7.556 2.726 7.457 2.666 7.354 2.627 C 7.067 2.522 6.733 2.581 6.501 2.812 L 2.806 6.506 C 2.577 6.738 2.517 7.073 2.623 7.359 C 2.662 7.463 2.724 7.561 2.806 7.647 C 2.806 7.647 2.806 7.647 2.806 7.647 L 10.63 15.467 L 2.806 23.29 C 2.806 23.29 2.806 23.29 2.806 23.29 C 2.724 23.375 2.662 23.474 2.623 23.577 C 2.517 23.863 2.577 24.198 2.806 24.43 L 6.501 28.125 C 6.733 28.354 7.068 28.414 7.354 28.308 C 7.457 28.269 7.556 28.207 7.641 28.125 C 7.641 28.125 7.641 28.125 7.641 28.125 L 15.464 20.301 L 23.284 28.125 C 23.284 28.125 23.284 28.125 23.284 28.125 C 23.37 28.207 23.468 28.269 23.572 28.308 C 23.858 28.414 24.193 28.354 24.425 28.125 L 28.119 24.43 C 28.35 24.198 28.409 23.863 28.304 23.577 C 28.265 23.474 28.205 23.375 28.119 23.29 Z" style="fill: rgb(255, 210, 62); stroke: rgb(0, 28, 85);"/>
</svg>