<?xml version="1.0" encoding="utf-8"?>
<svg version="1.1" width="32" height="32" viewBox="0 0 32 32" xmlns="http://www.w3.org/2000/svg">
  <title>cross</title>
  <path d="M 29.893 24.218 C 29.893 24.218 29.893 24.218 29.893 24.218 L 21.285 15.607 L 29.893 6.999 C 29.893 6.999 29.893 6.999 29.893 6.999 C 29.988 6.905 30.053 6.798 30.097 6.683 C 30.213 6.367 30.147 5.998 29.893 5.744 L 25.827 1.678 C 25.573 1.424 25.204 1.359 24.888 1.474 C 24.773 1.517 24.666 1.583 24.572 1.677 C 24.572 1.677 24.572 1.677 24.572 1.677 L 15.964 10.286 L 7.353 1.677 C 7.353 1.677 7.353 1.677 7.353 1.677 C 7.259 1.583 7.151 1.517 7.037 1.474 C 6.72 1.358 6.353 1.424 6.099 1.678 L 2.031 5.744 C 1.778 5.998 1.712 6.367 1.829 6.683 C 1.872 6.798 1.94 6.905 2.031 6.999 C 2.031 6.999 2.031 6.999 2.031 6.999 L 10.642 15.607 L 2.031 24.218 C 2.031 24.218 2.031 24.218 2.031 24.218 C 1.94 24.312 1.872 24.42 1.829 24.534 C 1.712 24.85 1.778 25.218 2.031 25.472 L 6.099 29.54 C 6.353 29.793 6.721 29.859 7.037 29.742 C 7.151 29.699 7.259 29.631 7.353 29.54 C 7.353 29.54 7.353 29.54 7.353 29.54 L 15.964 20.929 L 24.572 29.54 C 24.572 29.54 24.572 29.54 24.572 29.54 C 24.666 29.631 24.773 29.699 24.888 29.742 C 25.204 29.859 25.573 29.793 25.827 29.54 L 29.893 25.472 C 30.147 25.218 30.213 24.85 30.097 24.534 C 30.053 24.42 29.988 24.312 29.893 24.218 Z" style="fill: rgb(255, 210, 62); stroke: rgb(0, 28, 85);"/>
</svg>