<?xml version="1.0" encoding="utf-8"?>
<svg version="1.1" width="32" height="32" viewBox="0 0 32 32" xmlns="http://www.w3.org/2000/svg">
  <title>cross</title>
  <path d="M 27.444 22.718 C 27.444 22.718 27.444 22.718 27.444 22.718 L 20.221 15.493 L 27.444 8.27 C 27.444 8.27 27.444 8.27 27.444 8.27 C 27.523 8.191 27.578 8.101 27.615 8.004 C 27.713 7.739 27.657 7.43 27.444 7.217 L 24.032 3.805 C 23.819 3.592 23.51 3.537 23.245 3.634 C 23.148 3.67 23.058 3.726 22.979 3.804 C 22.979 3.804 22.979 3.804 22.979 3.804 L 15.756 11.028 L 8.531 3.804 C 8.531 3.804 8.531 3.804 8.531 3.804 C 8.452 3.726 8.362 3.67 8.266 3.634 C 8 3.536 7.692 3.592 7.479 3.805 L 4.066 7.217 C 3.853 7.43 3.798 7.739 3.896 8.004 C 3.932 8.101 3.989 8.191 4.066 8.27 C 4.066 8.27 4.066 8.27 4.066 8.27 L 11.291 15.493 L 4.066 22.718 C 4.066 22.718 4.066 22.718 4.066 22.718 C 3.989 22.797 3.932 22.887 3.896 22.983 C 3.797 23.248 3.853 23.557 4.066 23.77 L 7.479 27.183 C 7.692 27.396 8.001 27.451 8.266 27.353 C 8.362 27.317 8.452 27.26 8.531 27.183 C 8.531 27.183 8.531 27.183 8.531 27.183 L 15.756 19.958 L 22.979 27.183 C 22.979 27.183 22.979 27.183 22.979 27.183 C 23.058 27.26 23.148 27.317 23.245 27.353 C 23.51 27.452 23.819 27.396 24.032 27.183 L 27.444 23.77 C 27.657 23.557 27.713 23.248 27.615 22.983 C 27.578 22.887 27.523 22.797 27.444 22.718 Z" style="fill: rgb(255, 210, 62);"/>
</svg>