<?xml version="1.0" encoding="utf-8"?>
<svg version="1.1" width="32" height="32" viewBox="0 0 32 32" xmlns="http://www.w3.org/2000/svg">
  <title>cross</title>
  <path d="M 27.249 23.251 C 27.249 23.251 27.249 23.251 27.249 23.251 L 20.026 16.026 L 27.249 8.803 C 27.249 8.803 27.249 8.803 27.249 8.803 C 27.328 8.724 27.383 8.634 27.42 8.537 C 27.518 8.272 27.462 7.963 27.249 7.75 L 23.837 4.338 C 23.624 4.125 23.315 4.07 23.05 4.167 C 22.953 4.203 22.863 4.259 22.784 4.337 C 22.784 4.337 22.784 4.337 22.784 4.337 L 15.561 11.561 L 8.336 4.337 C 8.336 4.337 8.336 4.337 8.336 4.337 C 8.257 4.259 8.167 4.203 8.071 4.167 C 7.805 4.069 7.497 4.125 7.284 4.338 L 3.871 7.75 C 3.658 7.963 3.603 8.272 3.701 8.537 C 3.737 8.634 3.794 8.724 3.871 8.803 C 3.871 8.803 3.871 8.803 3.871 8.803 L 11.096 16.026 L 3.871 23.251 C 3.871 23.251 3.871 23.251 3.871 23.251 C 3.794 23.33 3.737 23.42 3.701 23.516 C 3.602 23.781 3.658 24.09 3.871 24.303 L 7.284 27.716 C 7.497 27.929 7.806 27.984 8.071 27.886 C 8.167 27.85 8.257 27.793 8.336 27.716 C 8.336 27.716 8.336 27.716 8.336 27.716 L 15.561 20.491 L 22.784 27.716 C 22.784 27.716 22.784 27.716 22.784 27.716 C 22.863 27.793 22.953 27.85 23.05 27.886 C 23.315 27.985 23.624 27.929 23.837 27.716 L 27.249 24.303 C 27.462 24.09 27.518 23.781 27.42 23.516 C 27.383 23.42 27.328 23.33 27.249 23.251 Z" style="fill: rgb(255, 210, 62); stroke: rgb(0, 28, 85);"/>
</svg>