<?xml version="1.0" encoding="utf-8"?>
<svg version="1.1" width="32" height="32" viewBox="0 0 32 32" xmlns="http://www.w3.org/2000/svg">
  <title>cross</title>
  <path d="M 26.249 22.931 C 26.249 22.931 26.249 22.931 26.249 22.931 L 19.026 15.706 L 26.249 8.483 C 26.249 8.483 26.249 8.483 26.249 8.483 C 26.328 8.404 26.383 8.314 26.42 8.217 C 26.518 7.952 26.462 7.643 26.249 7.43 L 22.837 4.018 C 22.624 3.805 22.315 3.75 22.05 3.847 C 21.953 3.883 21.863 3.939 21.784 4.017 C 21.784 4.017 21.784 4.017 21.784 4.017 L 14.561 11.241 L 7.336 4.017 C 7.336 4.017 7.336 4.017 7.336 4.017 C 7.257 3.939 7.167 3.883 7.071 3.847 C 6.805 3.749 6.497 3.805 6.284 4.018 L 2.871 7.43 C 2.658 7.643 2.603 7.952 2.701 8.217 C 2.737 8.314 2.794 8.404 2.871 8.483 C 2.871 8.483 2.871 8.483 2.871 8.483 L 10.096 15.706 L 2.871 22.931 C 2.871 22.931 2.871 22.931 2.871 22.931 C 2.794 23.01 2.737 23.1 2.701 23.196 C 2.602 23.461 2.658 23.77 2.871 23.983 L 6.284 27.396 C 6.497 27.609 6.806 27.664 7.071 27.566 C 7.167 27.53 7.257 27.473 7.336 27.396 C 7.336 27.396 7.336 27.396 7.336 27.396 L 14.561 20.171 L 21.784 27.396 C 21.784 27.396 21.784 27.396 21.784 27.396 C 21.863 27.473 21.953 27.53 22.05 27.566 C 22.315 27.665 22.624 27.609 22.837 27.396 L 26.249 23.983 C 26.462 23.77 26.518 23.461 26.42 23.196 C 26.383 23.1 26.328 23.01 26.249 22.931 Z" style="fill: rgb(255, 210, 62); stroke: rgb(0, 28, 85);"/>
</svg>