<?xml version="1.0" encoding="utf-8"?>
<svg version="1.1" width="32" height="32" viewBox="0 0 36 36" xmlns="http://www.w3.org/2000/svg">
  <title>bin</title>
  <path d="M 6.898 11.508 L 6.898 31.508 C 6.898 32.608 7.798 33.508 8.898 33.508 L 26.898 33.508 C 27.998 33.508 28.898 32.608 28.898 31.508 L 28.898 11.508 L 6.898 11.508 Z M 12.898 29.508 L 10.898 29.508 L 10.898 15.508 L 12.898 15.508 L 12.898 29.508 Z M 16.898 29.508 L 14.898 29.508 L 14.898 15.508 L 16.898 15.508 L 16.898 29.508 Z M 20.898 29.508 L 18.898 29.508 L 18.898 15.508 L 20.898 15.508 L 20.898 29.508 Z M 24.898 29.508 L 22.898 29.508 L 22.898 15.508 L 24.898 15.508 L 24.898 29.508 Z" style="stroke: rgb(0, 28, 85); fill: rgb(197, 197, 197);"/>
  <path d="M 29.398 5.508 L 22.898 5.508 L 22.898 3.008 C 22.898 2.183 22.223 1.508 21.398 1.508 L 14.398 1.508 C 13.573 1.508 12.898 2.183 12.898 3.008 L 12.898 5.508 L 6.398 5.508 C 5.573 5.508 4.898 6.183 4.898 7.008 L 4.898 9.508 L 30.898 9.508 L 30.898 7.008 C 30.898 6.183 30.223 5.508 29.398 5.508 Z M 20.898 5.508 L 14.898 5.508 L 14.898 3.533 L 20.898 3.533 L 20.898 5.508 Z" style="stroke: rgb(0, 28, 85); fill: rgb(197, 197, 197);"/>
</svg>