<?xml version="1.0" encoding="utf-8"?>
<svg version="1.1" width="32" height="32" viewBox="0 0 36 36" xmlns="http://www.w3.org/2000/svg">
  <title>plus</title>
  <path d="M 33.004 13.755 L 22.004 13.755 L 22.004 2.755 C 22.004 2.203 21.556 1.755 21.004 1.755 L 15.004 1.755 C 14.452 1.755 14.004 2.203 14.004 2.755 L 14.004 13.755 L 3.004 13.755 C 2.452 13.755 2.004 14.203 2.004 14.755 L 2.004 20.755 C 2.004 21.307 2.452 21.755 3.004 21.755 L 14.004 21.755 L 14.004 32.755 C 14.004 33.307 14.452 33.755 15.004 33.755 L 21.004 33.755 C 21.556 33.755 22.004 33.307 22.004 32.755 L 22.004 21.755 L 33.004 21.755 C 33.556 21.755 34.004 21.307 34.004 20.755 L 34.004 14.755 C 34.004 14.203 33.556 13.755 33.004 13.755 Z" style="fill: rgb(255, 210, 62); stroke: rgb(0, 28, 85);"/>
</svg>