<?xml version="1.0" encoding="utf-8"?>
<svg viewBox="0 0 593.38751 613.28748" height="613.28748" width="593.38751" version="1.1" id="svg2" xmlns="http://www.w3.org/2000/svg">
  <g transform="matrix(1.25,0,0,-1.25,0,613.2875)" id="g10" style="opacity: 0.24;">
    <g transform="scale(0.1,0.1)" id="g12">
      <path id="path14" style="fill:#f9ce31;fill-opacity:1;fill-rule:nonzero;stroke:none" d="M 3990.12,3780.22 C 4819.84,2945.24 4815.57,1595.74 3980.59,766.02 3145.61,-63.6992 1796.12,-59.4297 966.395,775.539 136.676,1610.52 140.945,2960.02 975.922,3789.74 1810.9,4619.46 3160.4,4615.2 3990.12,3780.22"/>
      <path id="path16" style="fill:none;stroke:#211d1d;stroke-width:20;stroke-linecap:round;stroke-linejoin:miter;stroke-miterlimit:10;stroke-dasharray:none;stroke-opacity:1" d="m 1561.46,4343.8 c 831.88,366.47 1838.89,207.23 2517.95,-476.14 C 4960.27,2981.22 4955.74,1548.55 4069.3,667.691 3182.87,-213.168 1750.19,-208.641 869.336,677.809 291.262,1259.53 94.5039,2076.53 278.086,2818.42"/>
      <path id="path18" style="fill:#1e264c;fill-opacity:1;fill-rule:nonzero;stroke:none" d="m 3479.6,2426.72 c -16.33,-13.17 -27.04,-35.9 -52.79,-37.99 1.72,11.71 3.91,23.85 6.21,36.31 l 46.58,1.68"/>
      <path id="path20" style="fill:#1e264c;fill-opacity:1;fill-rule:nonzero;stroke:none" d="m 3705.19,2434.89 c -1.32,-17.32 -3.22,-34.16 -5.71,-50.28 -65.2,-150.45 -190.08,-280.86 -372.14,-285.96 l -0.78,9.61 c 83.17,48.23 164.27,139.14 165.85,238.8 1.82,26.73 0.58,59.61 -8.34,79.83"/>
      <path id="path22" style="fill:#1e264c;fill-opacity:1;fill-rule:nonzero;stroke:none" d="m 3484.07,2426.89 c -0.35,0.8 -0.72,1.58 -1.1,2.35 -1.16,-0.79 -2.28,-1.63 -3.37,-2.52 l -46.58,-1.68 c 11.95,64.91 26.81,138.26 -6.27,202.85 -12.99,-27.33 -0.62,-77.47 -24.37,-108.43 -1.27,-1.48 -2.42,-4.34 -6.65,-3.3 -8.36,51.85 -35.5,96.65 -76.85,129.23 -5.07,-73.68 -0.32,-149.32 -38.09,-211.83 -14.07,3.01 -15.85,24.97 -30.37,33.47 0.23,-16.18 -0.55,-32.53 -2.45,-48.69 l 0,0 c -5.41,-45.87 -19.86,-90.08 -45.75,-123.87 -13.42,-21.83 -32.8,-38.61 -53.06,-44.4 1.78,29.17 3.44,59.72 -19.88,74.42 -100.07,-521 -276.77,-1017.81 -474.73,-1508.049 70.66,-240.32 126.67,-487.371 182.66,-734.4293 l 17.38,-9.6406 -241.42,-7.4609 C 2593.45,185.27 2548.89,342.102 2521.19,466.93 l -10.96,15.691 C 2445.3,346.02 2378.05,203.699 2317.68,61.9492 l -75.52,-14.2187 -184.6,0 C 2201.7,298.602 2323.19,555.91 2446.05,813.332 2324.48,1355.41 2174.08,1882.79 1947.32,2371.26 l 0,0 c -99.93,215.3 -214.71,423.03 -348.4,621.14 -27.93,41.38 -56.67,82.34 -86.29,122.87 l -7.42,6.31 c -30.92,-10.81 -9.87,-65.77 -47.95,-56.43 -79.66,44.69 -123.43,124.08 -156.11,202.98 -53.54,-99.37 -6.07,-199.22 56.56,-284.46 20.29,-27.61 42.16,-53.69 62.71,-77.72 l 2.75,0.22 0.55,-6.86 c -58.48,1.46 -112.08,39.01 -153.25,81.2 -4.66,4.78 -9.16,9.61 -13.49,14.47 0.31,-5.11 0.95,-10.07 1.88,-14.89 11.87,-61.38 71.14,-100.61 110.83,-147.38 -47.84,-6.65 -87.15,17.81 -122.34,42.6 -17.11,-27.66 8.91,-58.72 25.91,-80.84 25.21,-38.05 70.6,-52.33 90.21,-89.44 18.16,-70.41 49.6,-134.22 95.71,-191.3 -88.04,-22.35 -155.49,59.26 -221.19,102.31 -91.32,94.78 -153.9,220.19 -170.62,357.12 -3.18,26.07 -4.71,52.56 -4.45,79.33 -10.73,-25.77 -18.91,-52.56 -24.53,-80.38 -4.69,-23.16 -7.6,-47.03 -8.74,-71.62 -18.44,20.64 -29.62,44.47 -37.005,69.97 -9.676,33.39 -12.856,69.63 -17.325,105.33 -5.414,-18.41 -19.004,-4.31 -30.437,0.29 -6.723,14.66 -20.305,28.77 -32.074,37.48 -13.692,-35.67 31.004,-58.3 33.902,-94.01 4.574,-15.71 10.605,-32.67 16.016,-50.18 12.718,-41.17 22.007,-85.44 0.894,-124.01 -20.344,37.82 -39.414,84.07 -67.461,121.61 -19.101,25.55 -42.359,47.07 -73.019,59.14 -14.547,-8.1 1.562,-19.23 2.343,-28.85 9.844,-10.31 19.313,-20.92 28.332,-31.83 56.036,-67.77 94.629,-146.93 97.196,-237.22 -42.098,58.79 -74.657,136.33 -146.004,163.71 l -5.86,-12.92 c 84.082,-116.2 94.274,-275.74 142.286,-407.31 l 26.464,-36.56 c -170.332,20.73 -274.882,201.63 -311.164,359.04 -9.796,18.56 -1.043,46.92 -18.867,62.06 l -36.254,-47.18 c -22.758,48 -24.672,98.01 -15.711,146.69 9.434,51.21 30.911,100.94 52.832,145.24 39.114,46.03 73.223,102.72 117.235,139.47 l -0.555,6.87 c -84.625,-30.37 -110.894,-115.45 -163.223,-186.06 -7.351,-11.65 -8.531,-31.1 -20.671,-34.85 -9.813,120.85 70.832,217.25 136.375,312.44 -13.254,9.98 -20.157,-7.17 -32.403,-9.55 -73.711,-62.66 -121.105,-125.95 -168.531,-205.84 l -14.066,3.01 c -14.219,38.93 -23.176,81.06 -42.774,118.18 l -8.836,-10.4 c 5.836,-54.82 12.93,-108.16 29.305,-156.6 -25.5,-38.63 -43.586,-82.15 -54.676,-128.07 l -4.719,-0.17 c -16.398,-92.44 -6.64,-192.1 26.684,-280.8 -40.871,-0.5 -72.086,36.46 -99.926,66.65 -42.148,56.53 -65.363,131.25 -73.617,208.83 l -0.316,-0.01 c -0.086,1.44 0.023,2.86 -0.055,4.28 -0.793,8.01 -1.606,16.02 -2.082,24.07 l 1.762,0.06 c -0.969,68.52 8.476,136.41 27.027,192.85 88.691,167.56 241.418,312.68 395.18,410.87 l -0.223,2.75 C 555.5,3513.09 423.41,3437.4 346.668,3292.92 l -9.613,-0.78 c -13.934,69.38 1.316,136.97 23.988,198.25 l -7.648,9.06 c -47.356,-46.7 -52.098,-124.5 -63.332,-190.38 l -2.852,-50 c -36.828,10.83 -32.824,63.69 -41.219,98.95 -10.73,64.1 24.039,112.54 28.973,171 -7.652,9.06 -16,9.76 -26.988,8.87 -57.52,-91.76 -52.719,-201.96 -47.809,-313.54 -48.766,-63.4 -46.527,-142.02 -45.551,-222.12 l -9.39,-3.53 c -128.7778,138.85 -148.29731,379.18 -71.0356,551.34 3.2656,7.25 6.7734,14.34 10.4922,21.3 65.5974,122.51 199.3284,199.4 337.7544,218.49 83.027,33.01 177.281,-38.14 226.636,34.99 79.875,54.87 190.153,41.71 277.864,17.04 6.417,6.05 24.718,2.01 20.632,18.26 C 689.887,3969.14 320.637,3970.95 114.438,3752.38 71.3125,3704.64 27.2578,3651.3 21.293,3588.6 c -45.7735,52.97 -3.1719,124.16 -5.3282,184.81 32.6836,91.13 90.8792,174.65 163.3242,235.83 -1.117,13.74 -18.043,17.89 -27.988,21.23 9.312,21.49 37.707,29.33 55.816,44.62 16.371,2.71 28.063,11.96 41.238,19.94 -2.488,13.62 -17.371,9.65 -27.433,14.36 25.383,44.91 78.09,76.84 128.715,100.31 50.668,-11.09 92.691,-51.92 139.422,-82.68 -11.297,36.13 -50.672,61.71 -77.207,89.91 -4.153,4.41 -7.997,8.89 -11.368,13.49 15.934,-2.64 31.422,-6.79 46.457,-12.22 58.993,-21.32 110.985,-62.28 155.481,-108.24 l 21.605,-10.69 c -16.047,44.32 -53.945,85.48 -96.894,120.69 0,0 -0.684,0.58 -1.438,1.08 l -2.203,-0.08 c -0.082,2.31 -27.652,26.88 -27.652,26.88 29.105,-2.38 55.848,-11.77 80.926,-24.95 48.07,-25.25 90.004,-64.42 130.625,-94.73 -8.731,35.07 -26.891,68.5 -51.352,97.61 -44.535,52.96 -109.98,91.56 -177.547,99.45 -78.238,10.24 -162.387,-9.04 -216.609,-56.29 19.66,98.36 122.058,148.15 214.109,172.21 3.453,8.58 -12.547,18.34 -21.121,21.79 l -4.121,-0.33 c 70.449,34.75 174.227,33.5 245.797,3.36 56.719,-17.51 120.937,-59.29 164.555,-102.75 -15.348,154.96 43.765,295.24 171.068,378.84 123.92,108.22 349.41,89.2 492.22,33.06 -58.43,-29.63 -123.04,-68.06 -160.12,-122.21 -92.76,18.73 -189.63,-14.02 -252.57,-73.04 61.46,9.14 139.52,18.24 204.96,12.49 l 7.64,-9.06 c -16.21,-89.79 -132.5,-53.61 -179.89,-116.9 l -27.76,-32.67 c 47.73,8.03 103.96,30.57 154.41,22.22 l 8.2,-15.92 c 99.35,172.57 277.72,274.14 469.69,310.47 80.51,30.04 158.86,69.58 198.86,155.77 30.55,-52.81 20.1,-128.31 -1.76,-182.62 -23.42,-35.08 -50.62,-74.61 -81.46,-103.38 -57.2,6.41 -122.16,23.26 -178.05,-3.4 39.12,-5.12 74.79,-18.81 111.5,-28.27 -4.16,-16.93 -22.38,-30.85 -32.25,-45.48 -29.62,7.28 -69.45,4.04 -96.13,-7.8 70.23,-13.65 142.42,-17.47 214.95,-25.4 l -29.17,-49.37 c 139.07,23.74 254.48,-52.6 337.12,-150.96 l 1.34,-16.47 c -24.5,-4.76 -30.85,22.37 -51.78,24.82 -21.83,13.43 -46.88,15.54 -72.16,20.4 0,-51.15 63.77,-36.29 94.29,-54.55 1.42,-1.08 2.85,-2.18 4.27,-3.27 72.01,-55.53 137.63,-121.01 168.87,-205.23 -83.82,78.9 -186.2,148 -303.72,148.13 -10.8,18.28 -24.82,35.52 -40.95,50.73 -26.94,25.4 -59.77,45.11 -93.39,54.49 -44.95,8.79 -95.21,-2.2 -135.41,-17.91 22.82,-10.56 51.84,-24.56 73.9,-42.18 9.88,-7.9 18.36,-16.52 24.25,-25.88 -107.49,29.98 -242.12,2.46 -310.74,-88.83 l 0.56,-6.87 c 25.28,-4.85 44.09,18.79 67.33,22.06 165.94,67.39 351.8,25.81 498.8,-47.97 130.68,-116.14 225.89,-285.99 223.42,-468.03 -0.01,-0.61 -0.02,-1.21 -0.03,-1.82 -1.04,-4.22 -6.42,-6.05 -4.71,-10.05 l -10.99,-0.89 c -0.79,4.02 -1.62,8.06 -2.48,12.1 -17.16,80.3 -48.95,159.82 -111.8,220.53 6.32,-43.72 41.37,-83.73 34.39,-134.06 -30.7,37.59 -71.01,74.41 -102.76,107.77 -16.96,38.72 -28.55,79.25 -64.07,108.16 -8.98,-25.61 23.35,-49.25 6.13,-75.53 -96.66,66.8 -218.71,88.68 -335.74,48.77 l -26.13,-18.71 c 23.88,-21.57 60.73,-15.81 91.73,-22.97 132.41,-37.75 276.33,-107.02 325.7,-240.57 5.51,-14.89 9.84,-30.59 12.85,-47.12 -16.61,16 -33.84,31.28 -51.7,45.71 -54.71,44.23 -115.46,80.52 -183.13,105.25 -5.16,-4.57 -6.09,-10.17 -4.16,-16.93 51.82,-24.91 103.31,-53.69 151.28,-89.62 22.61,-16.93 44.43,-35.46 65.14,-55.92 -2.9,-15.45 -13.21,-24.58 -26.16,-35.31 -33.04,15.29 -67.19,44.31 -101.83,62.24 -25.8,3.57 -48.48,16.44 -73.05,24.07 -11.37,3.53 -23.14,5.95 -35.82,5.79 l 0.45,-5.49 c 0.89,-0.49 1.78,-0.99 2.66,-1.48 55.71,-30.99 115.36,-65.77 155.92,-112.83 -23.23,-3.27 -44.69,22.64 -68.6,27.61 -58.2,18.78 -117.63,52.66 -182.84,55.66 14.25,-22.34 50.48,-42.9 71.6,-64.69 -87.57,32.85 -186.5,63.32 -283.59,83.12 -37.28,7.6 -74.29,13.63 -110.28,17.61 5.31,-31.37 40.27,-2.26 55.35,-17.63 1.15,-0.6 2.31,-1.22 3.46,-1.84 58.32,-31.46 122.7,-86.11 135.23,-156.93 -13.4,-5.23 -28.51,-6.47 -38.82,-15.6 15.63,-22.23 39.75,-29.94 58.13,-51.95 47.59,-58.34 102.05,-116.13 88.25,-201.58 -17.29,-8.32 -37.53,2.48 -55.71,5.15 12.14,-47.39 -47.02,-101.97 7.36,-141.79 14.42,-20.71 28.61,-41.53 42.58,-62.47 132.16,-198.13 244.56,-406.34 343.67,-621.31 184.91,-401.03 323.56,-825.6 458.01,-1252.15 120.68,250.35 210.62,521.68 301.01,787.53 41.93,163.52 92.41,323.6 108.87,496.04 l 0,0 c 0.03,0.26 0.05,0.54 0.08,0.8 -3.21,0.06 -6.3,-0.35 -9.28,-1.13 -22.76,-5.96 -39.99,-33.28 -67.91,-35.55 -5.54,10.15 -10.1,21.09 -13.75,32.59 -17.75,55.94 -13.9,124.59 3.76,175.34 -35.02,-11.14 -70.58,-49.97 -92.74,-83.56 -21.72,-31.11 -39.82,-63.1 -52.09,-96.89 -14.31,-39.42 -20.63,-81.28 -15.44,-127.01 -20.82,1.07 -42.17,25.6 -50.93,48.39 -5.12,12.03 -6.24,25.76 -15.37,36.08 -15.44,-48.26 -10.75,-105.94 -1.13,-156.31 -33.18,0.07 -50.41,24.94 -63.62,51.52 -5.58,17.52 -7.25,38.11 -18.2,53.82 -11.21,-49.3 -6.74,-104.23 12.27,-151.07 -28.31,-76.95 -105.96,-159.29 -198.3,-162.64 -16.94,4.15 -45.21,-5.05 -50.78,12.47 61.31,45.06 118.54,106.39 113.22,188.9 -18.26,63.9 -17.24,134.18 4.88,195.6 15.3,42.47 40.7,80.7 76.78,109.63 -27.36,47.54 -27.07,129.13 9.4,173.57 27.95,64.47 134.07,85.53 95.12,173.61 -32.84,-55.2 -80.79,-111.63 -134.32,-150.53 -44.91,25.38 -7.94,80.91 -19.19,117.33 -26.31,-50.53 -39.71,-106.91 -60.31,-159.73 -52,27.57 -35.6,98.02 -31.27,146.76 l 2.52,2.97 -2.96,2.52 c -33.29,-49.7 -48.76,-114.55 -62.15,-170.93 -11.1,0.48 -16.56,16.63 -16.19,29.1 -10.81,30.92 13.17,59.12 -2.57,82.73 -40.6,-44.77 -7.15,-133.29 -77.78,-148.7 -51.96,-58.14 -94.53,-112.74 -124.77,-182.93 -18.82,27.5 -14.97,65.14 -15.12,101.07 1.88,78.95 28.01,148.81 58.36,217.62 -25.54,-8.98 -52.93,-29.18 -74.49,-53.04 -11.97,130.35 109.18,221.75 202.11,285.98 46.84,19.01 92.42,36.53 137.78,56.81 -77.26,49.01 -180.69,-5 -260.13,-14.22 3.71,22.42 21.6,40.47 38.01,59.77 -50.15,-12.37 -88.15,-72.13 -116.95,-109.03 l -9.7,68.33 c -11.21,1.85 -28.73,-3.71 -38.82,-15.59 -4.52,-80.55 -95.19,-104.5 -121.42,-172.99 -14.79,96.95 40.43,183 85.11,262.66 3.91,6.38 8.01,12.54 12.28,18.5 86.33,120.31 243.8,154.76 395.89,147.36 79.06,-3.26 154.89,-17.84 228.65,-40.88 l 2.52,2.96 c -89.36,61.87 -186.16,113.45 -298.29,115.41 -123.09,17.65 -242.86,-22.49 -341.85,-80.29 -48.96,7.08 -108.49,-8.82 -147.1,23.99 84.17,138.17 226.05,246.46 376.86,296.03 48.37,-16.81 88.9,-56.37 123.39,-89.51 14.07,-3.01 20.96,14.14 21.45,25.24 l -8.32,68.44 c 54.75,-27.35 95.96,-75.15 126.85,-132.08 9.94,-3.34 17.7,-13.77 29.95,-11.39 12.65,31.44 0.36,63.61 -3.68,96.46 l 12.35,1.01 c 64.78,-48.66 65.05,-137.11 124,-182.09 l 6.87,0.56 c 1.78,29.17 -0.79,60.76 6.48,90.38 28.25,-7.38 48.89,-40.27 79.54,-43.31 -5.53,85.26 -56.95,173.71 -135.72,207.4 0.71,8.35 12.06,21.72 24.53,21.35 34.67,-1.34 70.27,2.94 102.63,-4.11 -14.78,96.95 -93.89,185.91 -184.87,233.82 -21.38,7.94 -54.01,1.14 -67.82,17.99 117.99,62.12 246.5,11.73 351.22,-35.07 133.93,-83.13 232.01,-235.52 288.71,-371.92 l 6.86,0.56 c 25.83,39.42 49.29,91.09 97.73,107.46 -7.05,-32.36 -27.61,-68.59 -11.2,-100.44 42.52,38.02 65.65,93.81 119.13,116.12 -3.41,-43.13 -30.65,-99.26 -14.83,-140.82 l 13.4,5.23 c 12.65,82.59 53.57,174.39 131.48,219.42 -18.74,-41.61 -32.47,-93.88 -32.46,-145.02 7.87,-11.81 20.49,3.04 29.99,5.2 21.45,25.24 16.03,57.97 36.11,83.11 24.45,39.31 56.92,82.04 101.01,100.82 131.15,2.35 260.88,-63.14 326.67,-175.3 10.1,-39.27 33.34,-87.15 10.26,-126.35 -75.95,67.1 -191.43,110.25 -289.6,59.43 -55.57,-30.78 -113.68,-81.12 -131.91,-146.19 133.77,55.1 309.71,84.59 451.84,36.69 95.03,-29.61 204.65,-136.83 299.25,-42.05 -5.9,-29.51 -33.1,-69.05 -62.8,-94.96 -82.72,-53.72 -187.41,9.67 -271.39,-45.54 2.33,-1.73 4.68,-3.48 7.04,-5.24 45.12,-33.78 93.35,-73.61 123.59,-122.39 -50.7,-5.5 -107.98,18.88 -160.31,-0.58 72.75,-61.83 142.51,-137.72 142.85,-244.14 7.55,-58.83 -18.88,-107.98 -32.49,-161.62 37.88,-55.98 57.02,-139.74 49,-214.41 l -39.32,-1.43 c -5.08,35.44 -16.11,68.73 -39.91,94.5 4.81,-32.25 6.51,-64.38 4.8,-95.77 l -93.58,-3.38 c -5.01,21.23 -12,41.44 -21.39,59.8 l -7.42,6.3 c -13.66,-19.08 -35.29,-24.98 -52.26,-37.42 -14.23,90.09 -66.46,171.55 -140.74,218.05 19.93,-76.23 27.11,-170.56 20.74,-254.01"/>
    </g>
  </g>
</svg>