<?xml version="1.0" encoding="utf-8"?>
<svg viewBox="0 0 601.63751 601.63751" height="601.63751" width="601.63751" version="1.1" id="svg2" xmlns="http://www.w3.org/2000/svg">
  <g transform="matrix(1.25, 0, 0, -1.25, 0, 601.637512)" id="g10" style="opacity: 0.1;">
    <g transform="scale(0.1,0.1)" id="g12">
      <path id="path14" style="fill:#384a78;fill-opacity:1;fill-rule:nonzero;stroke:none" d="M 4011.95,4003.2 C 4890.74,3118.83 4886.22,1689.52 4001.86,810.73 3117.5,-68.0586 1688.18,-63.5391 809.395,820.82 -69.3945,1705.18 -64.8789,3134.49 819.48,4013.28 c 884.36,878.79 2313.67,874.27 3192.47,-10.08"/>
      <path id="path16" style="fill:none;stroke:#f9ce31;stroke-width:20;stroke-linecap:butt;stroke-linejoin:miter;stroke-miterlimit:10;stroke-dasharray:none;stroke-opacity:1" d="M 4106.52,4095.81 C 5039.48,3156.94 5034.69,1639.53 4095.82,706.578 3156.95,-226.371 1639.54,-221.57 706.586,717.301 -226.363,1656.16 -221.566,3173.57 717.301,4106.52 1656.17,5039.47 3173.57,5034.68 4106.52,4095.81 Z"/>
      <path id="path18" style="fill:#ffffff;fill-opacity:1;fill-rule:nonzero;stroke:none" d="m 3384.13,2220.72 c -14,-11.29 -23.19,-30.79 -45.27,-32.58 1.47,10.05 3.35,20.46 5.31,31.14 l 39.96,1.44"/>
      <path id="path20" style="fill:#ffffff;fill-opacity:1;fill-rule:nonzero;stroke:none" d="m 3577.68,2227.74 c -1.14,-14.86 -2.77,-29.31 -4.91,-43.14 -55.92,-129.07 -163.06,-240.95 -319.26,-245.33 l -0.67,8.25 c 71.36,41.37 140.93,119.37 142.29,204.86 1.55,22.94 0.49,51.15 -7.16,68.49"/>
      <path id="path22" style="fill:#ffffff;fill-opacity:1;fill-rule:nonzero;stroke:none" d="m 3387.97,2220.87 c -0.3,0.68 -0.62,1.36 -0.94,2.01 -1,-0.67 -1.95,-1.39 -2.9,-2.16 l -39.96,-1.44 c 10.25,55.69 23.01,118.61 -5.37,174.03 -11.14,-23.45 -0.54,-66.46 -20.91,-93.03 -1.08,-1.27 -2.07,-3.72 -5.7,-2.83 -7.17,44.48 -30.46,82.92 -65.93,110.88 -4.36,-63.21 -0.27,-128.11 -32.69,-181.74 -12.07,2.58 -13.6,21.43 -26.05,28.71 0.2,-13.87 -0.47,-27.91 -2.1,-41.76 l 0,0 c -4.64,-39.36 -17.04,-77.28 -39.24,-106.27 -11.53,-18.73 -28.14,-33.13 -45.54,-38.1 1.53,25.03 2.96,51.24 -17.04,63.85 -85.86,-446.97 -237.45,-873.18 -407.28,-1293.758 60.62,-206.18 108.67,-418.133 156.72,-630.071 l 14.9,-8.281 -207.12,-6.41 c -16.92,103.27 -55.14,237.828 -78.91,344.91 l -9.4,13.461 c -55.7,-117.18 -113.39,-239.281 -165.19,-360.91 l -64.79,-12.18 -158.37,0 c 123.66,215.207 227.89,435.957 333.29,656.809 -104.3,465.05 -233.32,917.49 -427.86,1336.56 l 0,0 c -85.74,184.7 -184.21,362.92 -298.9,532.88 -23.96,35.5 -48.62,70.64 -74.03,105.41 l -6.36,5.41 c -26.53,-9.27 -8.47,-56.43 -41.14,-48.41 -68.34,38.33 -105.89,106.44 -133.93,174.14 -45.93,-85.25 -5.21,-170.91 48.52,-244.04 17.41,-23.69 36.17,-46.06 53.8,-66.68 l 2.36,0.19 0.48,-5.89 c -50.18,1.25 -96.16,33.47 -131.47,69.67 -4,4.09 -7.87,8.24 -11.58,12.41 0.27,-4.39 0.81,-8.64 1.61,-12.77 10.18,-52.67 61.04,-86.32 95.08,-126.44 -41.04,-5.71 -74.77,15.27 -104.96,36.54 -14.68,-23.72 7.65,-50.37 22.24,-69.35 21.62,-32.64 60.57,-44.89 77.39,-76.74 15.58,-60.4 42.55,-115.13 82.11,-164.11 -75.53,-19.18 -133.4,50.84 -189.77,87.78 -78.34,81.3 -132.02,188.89 -146.37,306.37 -2.73,22.36 -4.04,45.09 -3.82,68.05 -9.2,-22.1 -16.22,-45.08 -21.05,-68.95 -4.01,-19.87 -6.51,-40.35 -7.5,-61.45 -15.81,17.71 -25.4,38.16 -31.74,60.03 -8.3,28.64 -11.03,59.74 -14.86,90.36 -4.65,-15.79 -16.3,-3.69 -26.11,0.25 -5.77,12.58 -17.42,24.68 -27.52,32.16 -11.74,-30.6 26.6,-50.02 29.09,-80.65 3.92,-13.48 9.09,-28.03 13.74,-43.05 10.91,-35.32 18.88,-73.3 0.76,-106.39 -17.45,32.45 -33.81,72.12 -57.87,104.33 -16.39,21.92 -36.34,40.38 -62.64,50.73 -12.48,-6.94 1.34,-16.5 2.01,-24.74 8.44,-8.85 16.57,-17.95 24.3,-27.31 48.08,-58.14 81.18,-126.05 83.39,-203.51 -36.12,50.43 -64.05,116.95 -125.26,140.45 l -5.03,-11.09 c 72.13,-99.69 80.88,-236.55 122.07,-349.43 l 22.71,-31.37 c -146.14,17.78 -235.828,172.98 -266.953,308.02 -8.414,15.93 -0.899,40.26 -16.188,53.25 l -31.105,-40.48 c -19.524,41.17 -21.168,84.08 -13.477,125.84 8.09,43.94 26.52,86.6 45.324,124.61 33.555,39.49 62.819,88.12 100.579,119.65 l -0.48,5.89 c -72.602,-26.06 -95.138,-99.04 -140.028,-159.62 -6.305,-10 -7.321,-26.68 -17.735,-29.9 -8.418,103.68 60.766,186.39 116.993,268.04 -11.368,8.57 -17.29,-6.14 -27.797,-8.18 C 915.238,2941.3 874.578,2887 833.891,2818.46 l -12.067,2.59 c -12.199,33.39 -19.883,69.54 -36.695,101.38 l -7.578,-8.92 c 5.004,-47.03 11.09,-92.79 25.14,-134.34 -21.882,-33.15 -37.394,-70.49 -46.906,-109.88 l -4.051,-0.14 c -14.066,-79.31 -5.699,-164.81 22.891,-240.91 -35.059,-0.43 -61.844,31.28 -85.723,57.18 -36.164,48.51 -56.074,112.6 -63.16,179.17 l -0.269,-0.01 c -0.075,1.22 0.015,2.44 -0.047,3.66 -0.684,6.87 -1.379,13.75 -1.789,20.65 l 1.515,0.06 c -0.836,58.78 7.27,117.02 23.184,165.45 76.09,143.75 207.109,268.24 339.027,352.48 l -0.191,2.35 C 875.535,3152.73 762.211,3087.79 696.379,2963.85 l -8.254,-0.67 c -11.949,59.51 1.133,117.5 20.586,170.07 l -6.563,7.78 c -40.628,-40.07 -44.699,-106.81 -54.335,-163.34 l -2.446,-42.89 c -31.594,9.29 -28.16,54.64 -35.355,84.89 -9.211,54.99 20.617,96.55 24.847,146.71 -6.562,7.77 -13.726,8.37 -23.148,7.61 -49.348,-78.73 -45.231,-173.27 -41.02,-268.99 -41.836,-54.4 -39.914,-121.84 -39.082,-190.56 l -8.05,-3.03 c -110.477,119.12 -127.219,325.3 -60.942,473 2.805,6.22 5.813,12.3 9.004,18.27 56.274,105.1 171,171.07 289.762,187.45 71.23,28.31 152.086,-32.72 194.433,30.02 68.524,47.07 163.134,35.77 238.374,14.61 5.51,5.19 21.21,1.72 17.7,15.67 -221.066,93.53 -537.847,95.08 -714.745,-92.44 -37,-40.95 -74.793,-86.71 -79.911,-140.5 -39.269,45.44 -2.718,106.51 -4.574,158.55 28.047,78.18 77.969,149.83 140.117,202.32 -0.957,11.78 -15.472,15.35 -24.007,18.21 7.988,18.44 32.347,25.16 47.886,38.28 14.043,2.33 24.071,10.26 35.379,17.11 -2.137,11.68 -14.906,8.28 -23.535,12.32 21.773,38.53 66.988,65.92 110.422,86.05 43.469,-9.51 79.519,-44.54 119.613,-70.93 -9.691,31 -43.472,52.94 -66.234,77.13 -3.567,3.79 -6.863,7.64 -9.758,11.58 13.672,-2.26 26.961,-5.83 39.855,-10.49 50.614,-18.28 95.219,-53.42 133.395,-92.86 l 18.527,-9.17 c -13.757,38.02 -46.277,73.33 -83.125,103.55 0,0 -0.586,0.49 -1.23,0.92 l -1.891,-0.06 c -0.07,1.98 -23.722,23.05 -23.722,23.05 24.964,-2.04 47.914,-10.09 69.425,-21.4 41.243,-21.67 77.215,-55.27 112.063,-81.27 -7.492,30.08 -23.067,58.77 -44.055,83.74 -38.207,45.44 -94.355,78.55 -152.312,85.32 -67.129,8.78 -139.317,-7.75 -185.836,-48.3 16.867,84.39 104.718,127.11 183.691,147.75 2.961,7.36 -10.765,15.73 -18.125,18.69 l -3.535,-0.29 c 60.434,29.82 149.473,28.74 210.871,2.9 48.661,-15.03 103.751,-50.88 141.171,-88.16 -13.16,132.94 37.54,253.28 146.76,325.01 106.32,92.84 299.77,76.53 422.28,28.36 -50.12,-25.42 -105.56,-58.38 -137.37,-104.85 -79.58,16.08 -162.68,-12.02 -216.68,-62.66 52.73,7.84 119.7,15.65 175.84,10.72 l 6.56,-7.77 c -13.91,-77.02 -113.68,-45.99 -154.34,-100.29 l -23.81,-28.02 c 40.95,6.88 89.19,26.21 132.46,19.05 l 7.04,-13.66 c 85.23,148.05 238.26,235.2 402.95,266.36 69.07,25.77 136.28,59.69 170.6,133.64 26.22,-45.31 17.25,-110.08 -1.5,-156.67 -20.1,-30.1 -43.43,-64.01 -69.89,-88.7 -49.07,5.51 -104.8,19.96 -152.76,-2.91 33.57,-4.39 64.17,-16.14 95.66,-24.26 -3.56,-14.51 -19.19,-26.46 -27.66,-39.01 -25.41,6.24 -59.58,3.47 -82.47,-6.69 60.25,-11.72 122.18,-14.99 184.41,-21.8 l -25.03,-42.35 c 119.31,20.36 218.33,-45.13 289.22,-129.5 l 1.15,-14.14 c -21.02,-4.08 -26.47,19.2 -44.43,21.29 -18.72,11.53 -40.22,13.34 -61.9,17.51 0,-43.88 54.71,-31.14 80.88,-46.8 1.23,-0.93 2.45,-1.87 3.68,-2.81 61.78,-47.64 118.06,-103.81 144.86,-176.07 -71.91,67.69 -159.74,126.97 -260.55,127.09 -9.27,15.68 -21.3,30.47 -35.13,43.52 -23.12,21.78 -51.28,38.7 -80.13,46.74 -38.56,7.54 -81.68,-1.88 -116.16,-15.36 19.57,-9.06 44.47,-21.07 63.39,-36.19 8.48,-6.78 15.76,-14.17 20.81,-22.2 -92.22,25.72 -207.71,2.1 -266.59,-76.21 l 0.48,-5.89 c 21.69,-4.17 37.83,16.12 57.77,18.93 142.36,57.81 301.81,22.13 427.92,-41.16 112.11,-99.64 193.79,-245.35 191.67,-401.53 0,-0.52 -0.01,-1.04 -0.02,-1.55 -0.89,-3.63 -5.51,-5.19 -4.05,-8.64 l -9.42,-0.76 c -0.68,3.46 -1.39,6.93 -2.13,10.39 -14.72,68.89 -41.99,137.11 -95.91,189.2 5.42,-37.52 35.48,-71.84 29.5,-115.02 -26.34,32.25 -60.92,63.84 -88.16,92.46 -14.55,33.22 -24.49,67.99 -54.97,92.79 -7.7,-21.98 20.04,-42.25 5.27,-64.8 -82.93,57.31 -187.64,76.08 -288.03,41.84 l -22.42,-16.06 c 20.48,-18.49 52.1,-13.56 78.69,-19.69 113.59,-32.4 237.06,-91.82 279.42,-206.39 4.73,-12.78 8.44,-26.25 11.02,-40.43 -14.25,13.73 -29.02,26.84 -44.35,39.22 -46.94,37.94 -99.05,69.08 -157.11,90.29 -4.42,-3.91 -5.22,-8.72 -3.56,-14.52 44.45,-21.38 88.63,-46.06 129.77,-76.88 19.4,-14.54 38.13,-30.43 55.89,-47.98 -2.48,-13.26 -11.33,-21.09 -22.45,-30.29 -28.34,13.11 -57.64,38.01 -87.35,53.39 -22.13,3.06 -41.6,14.11 -62.67,20.66 -9.75,3.02 -19.86,5.09 -30.73,4.96 l 0.38,-4.71 c 0.76,-0.42 1.52,-0.84 2.29,-1.27 47.79,-26.59 98.96,-56.42 133.76,-96.8 -19.94,-2.8 -38.34,19.43 -58.85,23.69 -49.93,16.11 -100.91,45.18 -156.87,47.75 12.23,-19.17 43.31,-36.81 61.44,-55.5 -75.13,28.18 -160,54.33 -243.3,71.31 -31.98,6.52 -63.73,11.69 -94.61,15.11 4.56,-26.91 34.55,-1.94 47.48,-15.12 1,-0.52 1.98,-1.05 2.98,-1.59 50.03,-26.98 105.26,-73.86 116.01,-134.63 -11.5,-4.49 -24.45,-5.54 -33.31,-13.37 13.41,-19.08 34.11,-25.7 49.88,-44.58 40.82,-50.05 87.54,-99.63 75.71,-172.93 -14.84,-7.14 -32.2,2.12 -47.8,4.41 10.42,-40.65 -40.34,-87.47 6.32,-121.64 12.37,-17.76 24.54,-35.63 36.52,-53.59 113.39,-169.98 209.81,-348.6 294.84,-533.02 158.63,-344.05 277.58,-708.29 392.94,-1074.23 103.52,214.77 180.68,447.56 258.23,675.62 35.98,140.29 79.28,277.62 93.41,425.56 l 0,0 c 0.02,0.23 0.04,0.46 0.06,0.68 -2.76,0.05 -5.41,-0.3 -7.97,-0.97 -19.52,-5.11 -34.31,-28.55 -58.27,-30.49 -4.74,8.7 -8.65,18.1 -11.77,27.96 -15.24,47.98 -11.94,106.88 3.22,150.42 -30.06,-9.55 -60.56,-42.86 -79.57,-71.69 -18.62,-26.69 -34.16,-54.13 -44.68,-83.12 -12.27,-33.81 -17.71,-69.73 -13.25,-108.96 -17.86,0.92 -36.17,21.96 -43.69,41.51 -4.4,10.32 -5.35,22.1 -13.18,30.95 -13.25,-41.4 -9.23,-90.88 -0.98,-134.09 -28.47,0.06 -43.24,21.39 -54.58,44.2 -4.79,15.03 -6.22,32.69 -15.62,46.17 -9.61,-42.3 -5.78,-89.42 10.53,-129.61 -24.29,-66.02 -90.9,-136.65 -170.13,-139.52 -14.52,3.56 -38.78,-4.34 -43.56,10.69 52.61,38.66 101.7,91.27 97.14,162.06 -15.67,54.82 -14.8,115.12 4.19,167.81 13.12,36.43 34.91,69.23 65.87,94.05 -23.48,40.79 -23.24,110.78 8.06,148.9 23.98,55.32 115.01,73.38 81.6,148.94 -28.17,-47.35 -69.31,-95.76 -115.23,-129.14 -38.53,21.78 -6.82,69.42 -16.47,100.66 -22.57,-43.34 -34.07,-91.72 -51.73,-137.03 -44.61,23.66 -30.55,84.1 -26.83,125.91 l 2.17,2.55 -2.55,2.16 c -28.55,-42.64 -41.83,-98.27 -53.32,-146.64 -9.52,0.41 -14.2,14.26 -13.89,24.96 -9.27,26.53 11.3,50.72 -2.2,70.98 -34.83,-38.41 -6.14,-114.35 -66.73,-127.57 -44.58,-49.88 -81.1,-96.72 -107.04,-156.95 -16.15,23.6 -12.84,55.89 -12.97,86.71 1.61,67.74 24.03,127.67 50.07,186.71 -21.91,-7.71 -45.41,-25.03 -63.91,-45.51 -10.26,111.83 93.66,190.24 173.39,245.34 40.18,16.31 79.29,31.35 118.2,48.74 -66.27,42.06 -155.01,-4.29 -223.16,-12.19 3.18,19.23 18.53,34.71 32.6,51.27 -43.02,-10.61 -75.62,-61.88 -100.33,-93.54 l -8.31,58.62 c -9.62,1.6 -24.65,-3.18 -33.31,-13.37 -3.88,-69.11 -81.67,-89.65 -104.17,-148.41 -12.69,83.18 34.68,156.99 73.02,225.33 3.35,5.48 6.87,10.77 10.54,15.87 74.06,103.23 209.15,132.78 339.63,126.42 67.82,-2.79 132.88,-15.3 196.16,-35.06 l 2.16,2.54 c -76.65,53.08 -159.71,97.33 -255.91,99.01 -105.59,15.14 -208.35,-19.29 -293.27,-68.88 -42,6.07 -93.08,-7.56 -126.2,20.58 72.21,118.53 193.94,211.44 323.31,253.96 41.49,-14.42 76.27,-48.36 105.85,-76.79 12.08,-2.58 18,12.13 18.41,21.66 l -7.14,58.71 c 46.98,-23.46 82.33,-64.47 108.82,-113.31 8.54,-2.87 15.2,-11.81 25.71,-9.77 10.86,26.96 0.31,54.57 -3.17,82.75 l 10.61,0.86 c 55.56,-41.73 55.8,-117.62 106.37,-156.21 l 5.89,0.48 c 1.53,25.03 -0.67,52.13 5.57,77.54 24.23,-6.33 41.94,-34.55 68.24,-37.15 -4.75,73.14 -48.87,149.02 -116.44,177.93 0.6,7.16 10.35,18.63 21.05,18.31 29.74,-1.14 60.27,2.52 88.05,-3.53 -12.69,83.18 -80.56,159.5 -158.62,200.6 -18.34,6.81 -46.32,0.98 -58.17,15.44 101.22,53.28 211.48,10.05 301.31,-30.09 114.9,-71.32 199.04,-202.06 247.68,-319.07 l 5.89,0.47 c 22.16,33.82 42.28,78.16 83.84,92.2 -6.05,-27.77 -23.69,-58.85 -9.61,-86.17 36.49,32.61 56.32,80.47 102.21,99.62 -2.93,-37 -26.3,-85.15 -12.73,-120.82 l 11.5,4.5 c 10.85,70.85 45.97,149.6 112.8,188.23 -16.07,-35.69 -27.85,-80.53 -27.85,-124.41 6.75,-10.13 17.58,2.61 25.73,4.46 18.4,21.66 13.75,49.74 30.98,71.3 20.98,33.73 48.84,70.38 86.66,86.5 112.51,2.02 223.81,-54.17 280.24,-150.39 8.67,-33.7 28.61,-74.77 8.81,-108.4 -65.16,57.57 -164.24,94.59 -248.46,50.98 -47.66,-26.4 -97.52,-69.59 -113.15,-125.41 114.76,47.27 265.69,72.57 387.63,31.48 81.52,-25.4 175.56,-117.39 256.73,-36.09 -5.06,-25.31 -28.4,-59.22 -53.87,-81.46 -70.98,-46.08 -160.78,8.3 -232.84,-39.06 2.01,-1.49 4.02,-2.99 6.04,-4.5 38.71,-28.98 80.09,-63.15 106.03,-105 -43.5,-4.72 -92.63,16.2 -137.53,-0.49 62.42,-53.05 122.26,-118.16 122.56,-209.46 6.47,-50.47 -16.2,-92.63 -27.88,-138.65 32.51,-48.02 48.92,-119.88 42.03,-183.95 l -33.72,-1.22 c -4.36,30.4 -13.83,58.96 -34.25,81.07 4.14,-27.67 5.59,-55.23 4.12,-82.16 l -80.28,-2.9 c -4.29,18.21 -10.3,35.55 -18.34,51.29 l -6.37,5.41 c -11.72,-16.36 -30.28,-21.42 -44.84,-32.09 -12.2,77.28 -57.02,147.17 -120.74,187.06 17.09,-65.39 23.25,-146.33 17.8,-217.91"/>
    </g>
  </g>
</svg>