<?xml version="1.0" encoding="utf-8"?>
<svg version="1.1" id="Layer_1" x="0px" y="0px" width="512px" height="512px" viewBox="0 0 512 512" enable-background="new 0 0 512 512" xmlns="http://www.w3.org/2000/svg">
  <path d="M 258.56 33.549 C 187.639 33.549 130.136 91.039 130.136 161.973 C 130.136 181.839 134.651 200.676 142.715 217.456 C 143.166 218.41 258.56 444.506 258.56 444.506 L 373.013 220.266 C 381.943 202.783 386.984 182.967 386.984 161.973 C 386.984 91.039 329.494 33.549 258.56 33.549 Z M 258.56 239.027 C 216.007 239.027 181.506 204.514 181.506 161.973 C 181.506 119.433 216.007 84.919 258.56 84.919 C 301.101 84.919 335.614 119.433 335.614 161.973 C 335.614 204.514 301.101 239.027 258.56 239.027 Z" style="fill: rgb(0, 28, 85); stroke: rgb(255, 210, 62); stroke-width: 10px;"/>
</svg>