<?xml version="1.0" encoding="utf-8"?>
<svg viewBox="0 0 200 100" xmlns="http://www.w3.org/2000/svg">
  <rect width="200" height="100.001" style="stroke-linejoin: round;" y="-0.001"/>
  <path d="M 20.014 71.578 L 20.014 73.428 L 14.534 73.428 L 14.534 88.638 L 12.294 88.638 L 12.294 73.428 L 6.814 73.428 L 6.814 71.578 L 20.014 71.578 Z M 27.454 75.888 L 27.454 77.908 C 27.128 77.848 26.771 77.818 26.384 77.818 C 24.964 77.818 24.001 78.425 23.494 79.638 L 23.494 88.638 L 21.324 88.638 L 21.324 75.958 L 23.434 75.958 L 23.474 77.428 C 24.181 76.295 25.188 75.728 26.494 75.728 C 26.914 75.728 27.234 75.781 27.454 75.888 Z M 31.805 75.958 L 31.805 88.638 L 29.635 88.638 L 29.635 75.958 L 31.805 75.958 Z M 29.455 72.598 C 29.455 72.245 29.561 71.948 29.775 71.708 C 29.995 71.461 30.315 71.338 30.735 71.338 C 31.155 71.338 31.475 71.461 31.695 71.708 C 31.915 71.948 32.025 72.245 32.025 72.598 C 32.025 72.945 31.915 73.238 31.695 73.478 C 31.475 73.711 31.155 73.828 30.735 73.828 C 30.315 73.828 29.995 73.711 29.775 73.478 C 29.561 73.238 29.455 72.945 29.455 72.598 Z M 45.979 82.238 L 45.979 82.438 C 45.979 84.371 45.539 85.925 44.659 87.098 C 43.772 88.278 42.575 88.868 41.069 88.868 C 39.529 88.868 38.319 88.381 37.439 87.408 L 37.439 93.518 L 35.269 93.518 L 35.269 75.958 L 37.249 75.958 L 37.359 77.368 C 38.239 76.275 39.465 75.728 41.039 75.728 C 42.559 75.728 43.762 76.301 44.649 77.448 C 45.535 78.595 45.979 80.191 45.979 82.238 Z M 43.809 82.188 C 43.809 80.761 43.505 79.635 42.899 78.808 C 42.292 77.981 41.455 77.568 40.389 77.568 C 39.075 77.568 38.092 78.148 37.439 79.308 L 37.439 85.368 C 38.085 86.521 39.079 87.098 40.419 87.098 C 41.452 87.098 42.275 86.688 42.889 85.868 C 43.502 85.041 43.809 83.815 43.809 82.188 Z M 68.123 71.578 L 68.123 88.638 L 65.863 88.638 L 57.273 75.488 L 57.273 88.638 L 55.013 88.638 L 55.013 71.578 L 57.273 71.578 L 65.893 84.778 L 65.893 71.578 L 68.123 71.578 Z M 81.881 88.638 L 79.611 88.638 C 79.485 88.385 79.381 87.938 79.301 87.298 C 78.295 88.345 77.091 88.868 75.691 88.868 C 74.445 88.868 73.421 88.515 72.621 87.808 C 71.821 87.101 71.421 86.205 71.421 85.118 C 71.421 83.798 71.921 82.775 72.921 82.048 C 73.928 81.315 75.341 80.948 77.161 80.948 L 79.271 80.948 L 79.271 79.958 C 79.271 79.198 79.045 78.595 78.591 78.148 C 78.138 77.695 77.471 77.468 76.591 77.468 C 75.818 77.468 75.168 77.665 74.641 78.058 C 74.115 78.445 73.851 78.918 73.851 79.478 L 71.681 79.478 C 71.681 78.845 71.905 78.231 72.351 77.638 C 72.798 77.051 73.408 76.585 74.181 76.238 C 74.948 75.898 75.791 75.728 76.711 75.728 C 78.178 75.728 79.325 76.091 80.151 76.818 C 80.978 77.551 81.408 78.558 81.441 79.838 L 81.441 85.678 C 81.441 86.838 81.588 87.761 81.881 88.448 L 81.881 88.638 Z M 76.011 86.988 C 76.691 86.988 77.335 86.811 77.941 86.458 C 78.555 86.105 78.998 85.648 79.271 85.088 L 79.271 82.488 L 77.571 82.488 C 74.918 82.488 73.591 83.265 73.591 84.818 C 73.591 85.498 73.818 86.028 74.271 86.408 C 74.718 86.795 75.298 86.988 76.011 86.988 Z M 84.825 75.958 L 86.875 75.958 L 86.935 77.368 C 87.862 76.275 89.115 75.728 90.695 75.728 C 92.468 75.728 93.675 76.405 94.315 77.758 C 94.735 77.151 95.285 76.661 95.965 76.288 C 96.638 75.915 97.435 75.728 98.355 75.728 C 101.142 75.728 102.558 77.198 102.605 80.138 L 102.605 88.638 L 100.435 88.638 L 100.435 80.268 C 100.435 79.361 100.228 78.685 99.815 78.238 C 99.402 77.791 98.705 77.568 97.725 77.568 C 96.918 77.568 96.252 77.808 95.725 78.288 C 95.192 78.768 94.882 79.415 94.795 80.228 L 94.795 88.638 L 92.615 88.638 L 92.615 80.328 C 92.615 78.488 91.712 77.568 89.905 77.568 C 88.485 77.568 87.515 78.171 86.995 79.378 L 86.995 88.638 L 84.825 88.638 L 84.825 75.958 Z M 111.129 88.868 C 109.409 88.868 108.012 88.305 106.939 87.178 C 105.859 86.051 105.319 84.541 105.319 82.648 L 105.319 82.248 C 105.319 80.995 105.559 79.871 106.039 78.878 C 106.519 77.891 107.192 77.118 108.059 76.558 C 108.919 76.005 109.852 75.728 110.859 75.728 C 112.512 75.728 113.795 76.268 114.709 77.348 C 115.622 78.435 116.079 79.991 116.079 82.018 L 116.079 82.918 L 107.489 82.918 C 107.515 84.171 107.879 85.181 108.579 85.948 C 109.279 86.715 110.169 87.098 111.249 87.098 C 112.015 87.098 112.662 86.945 113.189 86.638 C 113.722 86.325 114.189 85.908 114.589 85.388 L 115.909 86.428 C 114.849 88.055 113.255 88.868 111.129 88.868 Z M 110.859 77.508 C 109.985 77.508 109.252 77.825 108.659 78.458 C 108.065 79.098 107.699 79.991 107.559 81.138 L 113.909 81.138 L 113.909 80.978 C 113.849 79.871 113.552 79.018 113.019 78.418 C 112.485 77.811 111.765 77.508 110.859 77.508 Z" style="fill: rgb(255, 255, 255); white-space: pre;"/>
</svg>